<svg width="420" height="172" viewBox="0 0 420 172" fill="none" xmlns="http://www.w3.org/2000/svg">
<path d="M0 2.94147H22.843C44.4039 2.94147 59.3091 17.7438 59.3091 37.0598V37.2527C59.3091 56.5676 44.405 71.567 22.843 71.567H0V2.94147ZM22.843 66.8594C41.963 66.8594 54.0062 53.8219 54.0062 37.4528V37.2527C54.0062 20.9795 41.9599 7.64799 22.843 7.64799H5.10702V66.8573L22.843 66.8594Z" fill="#00305E"/>
<path d="M71.7528 1.95861H77.7301V8.52584H71.7528V1.95861ZM72.3469 21.5644H77.1412V71.5671H72.3469V21.5644Z" fill="#00305E"/>
<path d="M93.1167 79.8023L95.962 75.8817C101.708 80.4341 108.817 82.9206 116.147 82.941C127.62 82.941 135.76 76.3738 135.76 63.528V56.2728C131.443 62.4502 124.782 67.8437 114.878 67.8437C102.822 67.8437 90.8644 58.6339 90.8644 44.3163V44.1203C90.8644 29.7099 102.822 20.3938 114.878 20.3938C124.883 20.3938 131.638 25.6883 135.76 31.5696V21.5645H140.566V63.821C140.566 71.0772 138.209 76.7636 134.194 80.7832C129.874 85.0936 123.415 87.4547 116.059 87.4547C107.779 87.4881 99.7186 84.7994 93.1167 79.8023ZM136.05 44.2183V44.0182C136.05 32.4473 125.759 25.0013 115.373 25.0013C104.876 25.0013 96.06 32.2545 96.06 43.9222V44.1172C96.0437 46.6491 96.5335 49.1587 97.5008 51.4986C98.4681 53.8384 99.8932 55.9613 101.693 57.7424C103.492 59.5236 105.629 60.927 107.978 61.8702C110.328 62.8135 112.842 63.2776 115.373 63.2351C125.759 63.2351 136.05 55.5869 136.05 44.2183Z" fill="#00305E"/>
<path d="M158.895 1.95861H164.872V8.52584H158.895V1.95861ZM159.475 21.5644H164.276V71.5671H159.475V21.5644Z" fill="#00305E"/>
<path d="M185.846 58.7223V25.979H178.585V21.5643H185.846V5.58925H190.651V21.5643H208.197V25.979H190.651V58.2366C190.651 65.3917 194.86 67.9394 200.647 67.9394C203.197 67.9208 205.71 67.3178 207.991 66.1767V70.6872C205.452 71.888 202.671 72.4906 199.862 72.4489C192.117 72.4479 185.846 68.2344 185.846 58.7223Z" fill="#00305E"/>
<path d="M216.339 57.0536V56.8597C216.339 46.4668 225.247 40.5907 238.185 40.5907C243.78 40.5325 249.356 41.2588 254.749 42.7485V40.5907C254.749 30.4917 248.574 25.2932 238.282 25.2932C232.804 25.3336 227.418 26.7128 222.595 29.3107L220.838 25.0951C226.341 22.3155 232.41 20.8406 238.575 20.7847C245.34 20.7847 250.739 22.6455 254.357 26.2752C257.685 29.6109 259.456 34.2163 259.456 40.3905V71.5672H254.748V63.2351C252.584 66.2639 249.709 68.7149 246.376 70.373C243.043 72.0312 239.354 72.8457 235.633 72.7451C226.327 72.7451 216.339 67.4517 216.339 57.0536ZM254.847 52.838V47.1517C249.315 45.6719 243.614 44.914 237.888 44.8969C227.299 44.8969 221.42 49.6086 221.42 56.572V56.7648C221.42 64.0222 228.299 68.2387 235.936 68.2387C246.128 68.2346 254.847 61.9592 254.847 52.838Z" fill="#00305E"/>
<path d="M277.39 0H282.185V71.5672H277.39V0Z" fill="#00305E"/>
<path d="M33.9148 86.5268H84.985V97.5087H45.9632V116.229H80.5762V127.208H45.9632V155.145H33.9148V86.5268Z" fill="#00305E"/>
<path d="M88.6003 129.564V129.372C88.6003 114.563 100.362 102.313 116.238 102.313C132.113 102.313 143.784 114.37 143.784 129.169V129.378C143.784 144.076 132.017 156.332 116.043 156.332C100.264 156.327 88.6003 144.271 88.6003 129.564ZM131.917 129.564V129.372C131.917 120.248 125.36 112.701 116.043 112.701C106.536 112.701 100.446 120.154 100.446 129.171V129.38C100.446 138.393 107.021 146.046 116.238 146.046C125.839 146.043 131.917 138.486 131.917 129.564Z" fill="#00305E"/>
<path d="M151.327 136.332V103.391H163.185V132.804C163.185 140.846 167.209 145.452 174.261 145.452C181.127 145.452 185.934 140.648 185.934 132.611V103.388H197.796V155.153H185.931V147.117C182.596 152.016 177.801 156.234 169.758 156.234C158.093 156.234 151.327 148.386 151.327 136.332Z" fill="#00305E"/>
<path d="M210.724 103.388H222.586V111.426C225.921 106.527 230.728 102.313 238.764 102.313C250.425 102.313 257.184 110.154 257.184 122.213V155.153H245.333V125.738C245.333 117.706 241.31 113.095 234.258 113.095C227.384 113.095 222.585 117.899 222.585 125.934V155.152H210.724V103.388Z" fill="#00305E"/>
<path d="M264.929 129.373V129.164C264.929 112.011 276.588 102.308 288.947 102.308C297.47 102.308 302.861 106.622 306.587 111.421V83.5833H318.446V155.153H306.587V146.527C302.771 151.917 297.375 156.234 288.947 156.234C276.79 156.234 264.929 146.527 264.929 129.373ZM306.785 129.373V129.164C306.785 119.169 299.733 112.599 291.791 112.599C283.653 112.599 276.887 118.874 276.887 129.164V129.373C276.887 139.374 283.749 145.938 291.791 145.938C299.733 145.939 306.785 139.267 306.785 129.373Z" fill="#00305E"/>
<path d="M329.323 103.388H341.195V115.057C344.417 107.312 350.408 102.018 359.518 102.409V114.96H358.827C348.434 114.96 341.195 121.722 341.195 135.448V155.15H329.323V103.388Z" fill="#00305E"/>
<path d="M370.102 167.993L374.121 159.174C376.239 160.398 378.629 161.072 381.074 161.134C384.409 161.134 386.472 159.664 388.432 155.153L366.871 103.388H379.52L394.216 141.823L407.646 103.388H420L399.411 156.622C395.289 167.212 390.687 171.135 382.354 171.135C378.063 171.197 373.834 170.113 370.102 167.993Z" fill="#00305E"/>
</svg>
